<mxfile host="app.diagrams.net" modified="2023-10-23T14:48:46.540Z" agent="Mozilla/5.0 (X11; Ubuntu; Linux x86_64; rv:88.0) Gecko/20100101 Firefox/88.0" etag="nheHiNsbFz10tTo7-bE4" version="21.8.2" type="device">
  <diagram id="3wWlgGhNNHLo4Hu9hpyk" name="Page-1">
    <mxGraphModel dx="1578" dy="920" grid="1" gridSize="10" guides="1" tooltips="1" connect="1" arrows="1" fold="1" page="1" pageScale="1" pageWidth="827" pageHeight="1169" math="0" shadow="0">
      <root>
        <mxCell id="0" />
        <mxCell id="1" parent="0" />
        <mxCell id="mlE7LE_FIp_m5NRGwoGI-30" value="COMPAS" style="shape=umlFrame;whiteSpace=wrap;html=1;fillColor=#d0cee2;strokeColor=#56517e;swimlaneFillColor=#D4E1F5;" parent="1" vertex="1">
          <mxGeometry x="140" y="40" width="670" height="360" as="geometry" />
        </mxCell>
        <mxCell id="mlE7LE_FIp_m5NRGwoGI-31" value="COMPAS-SCT" style="shape=umlFrame;whiteSpace=wrap;html=1;width=120;height=30;fillColor=#fff2cc;strokeColor=#d6b656;swimlaneFillColor=#ffffff;" parent="1" vertex="1">
          <mxGeometry x="170" y="90" width="420" height="260" as="geometry" />
        </mxCell>
        <mxCell id="mlE7LE_FIp_m5NRGwoGI-32" value="COMPAS-CORE" style="shape=umlFrame;whiteSpace=wrap;html=1;width=130;height=20;swimlaneFillColor=#E1D5E7;fillColor=#99CCFF;" parent="1" vertex="1">
          <mxGeometry x="620" y="220" width="160" height="160" as="geometry" />
        </mxCell>
        <mxCell id="mlE7LE_FIp_m5NRGwoGI-33" value="sct-commons" style="shape=folder;fontStyle=1;spacingTop=10;tabWidth=40;tabHeight=14;tabPosition=left;html=1;fillColor=#d5e8d4;strokeColor=#82b366;" parent="1" vertex="1">
          <mxGeometry x="360" y="260" width="90" height="50" as="geometry" />
        </mxCell>
        <mxCell id="mlE7LE_FIp_m5NRGwoGI-38" value="sct-app&lt;br&gt;(automation app)" style="shape=folder;fontStyle=1;spacingTop=10;tabWidth=40;tabHeight=14;tabPosition=left;html=1;fillColor=#d5e8d4;strokeColor=#82b366;" parent="1" vertex="1">
          <mxGeometry x="320" y="135" width="120" height="50" as="geometry" />
        </mxCell>
        <mxCell id="mlE7LE_FIp_m5NRGwoGI-40" value="Use" style="endArrow=open;endSize=12;dashed=1;html=1;exitX=0.5;exitY=1;exitDx=0;exitDy=0;exitPerimeter=0;entryX=0;entryY=0;entryDx=20;entryDy=0;entryPerimeter=0;" parent="1" source="mlE7LE_FIp_m5NRGwoGI-38" target="mlE7LE_FIp_m5NRGwoGI-33" edge="1">
          <mxGeometry width="160" relative="1" as="geometry">
            <mxPoint x="140" y="620" as="sourcePoint" />
            <mxPoint x="300" y="620" as="targetPoint" />
          </mxGeometry>
        </mxCell>
        <mxCell id="mlE7LE_FIp_m5NRGwoGI-44" value="&lt;font color=&quot;#24292e&quot; size=&quot;1&quot;&gt;&lt;span style=&quot;font-weight: 400 ; white-space: normal ; font-size: 12px&quot;&gt;scl2007b4&lt;/span&gt;&lt;/font&gt;" style="shape=folder;fontStyle=1;spacingTop=10;tabWidth=40;tabHeight=14;tabPosition=left;html=1;" parent="1" vertex="1">
          <mxGeometry x="680" y="270" width="70" height="50" as="geometry" />
        </mxCell>
        <mxCell id="mlE7LE_FIp_m5NRGwoGI-45" value="Use" style="endArrow=open;endSize=12;dashed=1;html=1;entryX=0;entryY=0;entryDx=0;entryDy=32;entryPerimeter=0;exitX=0;exitY=0;exitDx=90;exitDy=41;exitPerimeter=0;" parent="1" target="mlE7LE_FIp_m5NRGwoGI-44" edge="1" source="mlE7LE_FIp_m5NRGwoGI-33">
          <mxGeometry width="160" relative="1" as="geometry">
            <mxPoint x="560" y="303" as="sourcePoint" />
            <mxPoint x="300" y="610" as="targetPoint" />
          </mxGeometry>
        </mxCell>
        <mxCell id="mlE7LE_FIp_m5NRGwoGI-53" value="" style="endArrow=open;dashed=1;html=1;exitX=0;exitY=0;exitDx=120;exitDy=32;exitPerimeter=0;entryX=0.513;entryY=0;entryDx=0;entryDy=0;entryPerimeter=0;edgeStyle=orthogonalEdgeStyle;endFill=0;" parent="1" source="mlE7LE_FIp_m5NRGwoGI-38" target="mlE7LE_FIp_m5NRGwoGI-32" edge="1">
          <mxGeometry width="50" height="50" relative="1" as="geometry">
            <mxPoint x="140" y="660" as="sourcePoint" />
            <mxPoint x="700" y="182" as="targetPoint" />
          </mxGeometry>
        </mxCell>
        <mxCell id="mlE7LE_FIp_m5NRGwoGI-54" value="Use" style="text;html=1;strokeColor=none;fillColor=none;align=center;verticalAlign=middle;whiteSpace=wrap;rounded=0;" parent="1" vertex="1">
          <mxGeometry x="610" y="165" width="40" height="20" as="geometry" />
        </mxCell>
      </root>
    </mxGraphModel>
  </diagram>
</mxfile>